<?xml version="1.0" encoding="UTF-8"?>
<!DOCTYPE svg PUBLIC "-//W3C//DTD SVG 1.1//EN" "http://www.w3.org/Graphics/SVG/1.1/DTD/svg11.dtd">
<!-- Creator: CorelDRAW 2021 (64 Bit) -->
<svg xmlns="http://www.w3.org/2000/svg" xml:space="preserve" width="500px" height="500px" version="1.1" shape-rendering="geometricPrecision" text-rendering="geometricPrecision" image-rendering="optimizeQuality" fill-rule="evenodd" clip-rule="evenodd"
viewBox="0 0 500 500"
 xmlns:xlink="http://www.w3.org/1999/xlink"
 xmlns:xodm="http://www.corel.com/coreldraw/odm/2003">
 <g id="Camada_x0020_1">
  <metadata id="CorelCorpID_0Corel-Layer"/>
  <path fill="#E85621" fill-rule="nonzero" d="M250 0c-138,0 -250,112 -250,250 0,138 112,250 250,250 138,0 250,-112 250,-250 0,-138 -112,-250 -250,-250zm111 256c-2,6 -5,11 -11,14l-133 77c-4,2 -8,3 -12,3 -13,0 -23,-10 -23,-23l0 -154c0,-4 1,-8 3,-12 6,-11 21,-15 32,-8l133 77c4,2 6,5 8,8 3,5 4,12 2,18zm0 0z"/>
 </g>
</svg>
